# xmcd CD database file
#
# Track frame offsets:
#	150
#	19810
#	35675
#	54345
#	69142
#	82830
#	96617
#	110215
#	126045
#	146492
#
# Disc length: 2180 seconds
#
# Revision: 0
# Processed by: cddbd v1.5.1PL0 Copyright (c) Steve Scherf et al.
# Submitted via: CDex 1.51
#
DISCID=8508820a
DTITLE=Lyle Murphy - Gone with the Woodwinds!
DYEAR=1955
DGENRE=Jazz
TTITLE0=Fourth Dimension
TTITLE1=Triton
TTITLE2=Sophisticated Lady
TTITLE3=Poly-Doodle
TTITLE4=Perdido
TTITLE5=Dizzy Dialogue
TTITLE6=Blue Moon
TTITLE7=Seismograph
TTITLE8=These Foolish Things
TTITLE9=Pemba
EXTD=YEAR: 1955
EXTT0=
EXTT1=
EXTT2=
EXTT3=
EXTT4=
EXTT5=
EXTT6=
EXTT7=
EXTT8=
EXTT9=
PLAYORDER=
